<svg viewBox="0 0 200 200" xmlns="http://www.w3.org/2000/svg">
  <!-- Background circle -->
  <circle cx="100" cy="100" r="95" fill="#ecf9f8" stroke="#10b981" stroke-width="2"/>
  
  <!-- Shopping bag shape with grocery items -->
  <g>
    <!-- Bag handle -->
    <path d="M 60 70 Q 60 50 100 50 Q 140 50 140 70" stroke="#10b981" stroke-width="3" fill="none" stroke-linecap="round"/>
    
    <!-- Bag body -->
    <path d="M 65 75 L 70 145 Q 70 150 75 150 L 125 150 Q 130 150 130 145 L 135 75 Z" fill="#10b981" opacity="0.1" stroke="#10b981" stroke-width="2"/>
    
    <!-- Grocery items inside bag -->
    <!-- Rice -->
    <rect x="75" y="95" width="12" height="30" fill="#f59e0b" rx="1"/>
    <text x="81" y="122" font-size="8" font-weight="bold" fill="#fff" text-anchor="middle">R</text>
    
    <!-- Leaf (representing fresh produce) -->
    <g transform="translate(105, 105)">
      <path d="M 0 -8 Q 4 -5 4 0 Q 4 5 0 8 Q -4 5 -4 0 Q -4 -5 0 -8" fill="#10b981"/>
      <path d="M 0 -6 Q 2 -3 2 0 Q 2 3 0 6" stroke="#fff" stroke-width="0.5" fill="none"/>
    </g>
    
    <!-- Spice container -->
    <rect x="90" y="110" width="10" height="25" fill="#dc2626" rx="1"/>
    <rect x="90" y="108" width="10" height="3" fill="#991b1b"/>
    
    <!-- Oil bottle -->
    <rect x="122" y="100" width="8" height="35" fill="#fbbf24" rx="1" opacity="0.9"/>
    <circle cx="126" cy="98" r="3" fill="#fbbf24"/>
  </g>
  
  <!-- Text -->
  <text x="100" y="175" font-size="14" font-weight="bold" fill="#10b981" text-anchor="middle" font-family="Arial, sans-serif">PM MODERN</text>
</svg>