<svg viewBox="0 0 120 120" xmlns="http://www.w3.org/2000/svg">
  <!-- Background Circle -->
  <circle cx="60" cy="60" r="55" fill="#ecfdf5" stroke="#10b981" stroke-width="2"/>
  
  <!-- Shopping Bag -->
  <path d="M 40 50 L 45 30 L 75 30 L 80 50 Z" fill="none" stroke="#10b981" stroke-width="2.5"/>
  <path d="M 40 50 L 45 85 Q 45 90 50 90 L 70 90 Q 75 90 75 85 L 80 50" fill="none" stroke="#10b981" stroke-width="2.5"/>
  <path d="M 50 30 Q 50 20 60 20 Q 70 20 70 30" fill="none" stroke="#10b981" stroke-width="2.5"/>
  
  <!-- Handle -->
  <path d="M 50 30 Q 60 15 70 30" fill="none" stroke="#10b981" stroke-width="2.5" stroke-linecap="round"/>
  
  <!-- Rice (Gold) -->
  <circle cx="52" cy="60" r="5" fill="#fbbf24"/>
  <circle cx="58" cy="62" r="4" fill="#fbbf24"/>
  
  <!-- Spices (Red) -->
  <circle cx="62" cy="58" r="4" fill="#ef4444"/>
  <circle cx="66" cy="61" r="3" fill="#ef4444"/>
  
  <!-- Oil (Yellow) -->
  <rect x="68" y="65" width="6" height="8" fill="#fbbf24" rx="1"/>
  
  <!-- Leaf (Green at top) -->
  <path d="M 75 35 Q 80 30 82 35" fill="none" stroke="#10b981" stroke-width="2" stroke-linecap="round"/>
  
  <!-- Accent Line -->
  <line x1="45" y1="50" x2="75" y2="50" stroke="#10b981" stroke-width="1.5" opacity="0.4"/>
</svg>
