<?xml version="1.0" encoding="utf-8"?>
<!-- Generator: Adobe Illustrator 26.2.0, SVG Export Plug-In . SVG Version: 6.00 Build 0)  -->
<svg version="1.1" id="Layer_1" xmlns="http://www.w3.org/2000/svg" xmlns:xlink="http://www.w3.org/1999/xlink" x="0px" y="0px"
	 width="178px" height="178px" viewBox="0 0 178 178" style="enable-background:new 0 0 178 178;" xml:space="preserve">
<style type="text/css">
	.st0{clip-path:url(#SVGID_00000134240440809168451970000017558735064346669468_);enable-background:new    ;}
	.st1{opacity:5.200000e-02;fill:#832729;enable-background:new    ;}
	.st2{fill:#908E8A;}
	.st3{fill:#FFFFFF;}
</style>
<g>
	<g>
		<defs>
			<rect id="SVGID_1_" y="-2" width="178" height="178"/>
		</defs>
		<clipPath id="SVGID_00000168807185864221684420000012788462970091770303_">
			<use xlink:href="#SVGID_1_"  style="overflow:visible;"/>
		</clipPath>
		<g id="Bag_Icon" style="clip-path:url(#SVGID_00000168807185864221684420000012788462970091770303_);enable-background:new    ;">
			<g id="Group_1" transform="translate(-871 -318)">
				
					<ellipse id="Ellipse_7" transform="matrix(0.7071 -0.7071 0.7071 0.7071 -6.84 798.1232)" class="st1" cx="960" cy="407.3" rx="87.5" ry="87.5"/>
				<g id="noun-shop-bag-3002040" transform="translate(759.074 314.32)">
					<path id="Path_328" class="st2" d="M147.1,145.9l27.8,14.9h0.2c0.2,0.1,0.3,0.1,0.5,0.1c0.1,0,0.2,0,0.3,0l77.8-19.9
						c0.7-0.2,1.1-0.8,1.1-1.5l-8.1-84.8l0,0c0-0.2-0.1-0.3-0.1-0.5c-0.1-0.1-0.2-0.2-0.3-0.3l-0.1-0.1l-0.1-0.1l-14.6-8.3
						c-0.7-0.4-1.6-0.1-2,0.6c-0.4,0.7-0.1,1.6,0.5,2l11.1,6.2l-16.6,3.7c-1.2-12.1-3.8-26.1-9.3-30.8c-1.6-1.4-3.8-2-5.9-1.6
						c-9.6,1.7-13,22.4-14.2,39l-19.8,4.4l-16.4-13.4l33.5-7.5l0,0c0.7-0.4,1.1-1.3,0.7-2c-0.2-0.5-0.8-0.8-1.3-0.8l-12.2,2.7
						c1.2-7,4.2-16.5,8.3-17.8c1.9-0.6,4.3,0.7,7,3.8l0,0c0.6,0.6,1.5,0.6,2.1,0c0.6-0.5,0.6-1.4,0.1-2c-3.5-4.1-6.9-5.7-10.1-4.7
						c-7.2,2.1-10,17-10.6,21.4l-21.2,4.7c-0.1,0-0.3,0.1-0.4,0.1c-0.1,0.1-0.3,0.2-0.4,0.3l-0.1,0.1l0,0c-0.1,0.1-0.2,0.3-0.2,0.4
						c0,0.1,0,0.3,0,0.4c-0.6,3.3-2.3,18.1-7.6,89.6C146.4,145,146.6,145.6,147.1,145.9L147.1,145.9z M209.8,28.4L209.8,28.4
						c1.2-0.2,2.5,0.1,3.4,1c4.7,3.9,7.1,17,8.3,29.2l-23.4,5.2C199.4,47.6,202.6,29.7,209.8,28.4L209.8,28.4z M194.4,84.7
						c0,0.8,0.7,1.5,1.5,1.5s1.5-0.7,1.5-1.5c0-4.4,0-10.8,0.5-17.8l23.9-5.4c0.5,6.4,0.7,12.3,0.7,16.1l0,0c0,0.8,0.7,1.5,1.5,1.5
						s1.5-0.7,1.5-1.5c0-0.7,0-7.9-0.7-16.7l19.2-4.3l7.9,81.9l-74.7,19.2l-0.8-85.9l18.4-4.1C194.3,76,194.3,82.8,194.4,84.7
						L194.4,84.7z M156.5,57.5l16.9,13.7l0.8,85.8l-24.8-13.3C151.7,112.8,155.2,68.1,156.5,57.5L156.5,57.5z"/>
					<path id="Line_243" class="st2" d="M204.1,124.5c-0.7,0-1.3-0.5-1.5-1.1c-0.2-0.8,0.3-1.6,1.1-1.8l27-7
						c0.8-0.2,1.6,0.3,1.8,1.1c0.2,0.8-0.3,1.6-1.1,1.8l-27,7C204.3,124.5,204.2,124.5,204.1,124.5z"/>
					<circle id="Ellipse_8" class="st3" cx="204.6" cy="105.5" r="4"/>
					<path id="Ellipse_8_-_Outline" class="st2" d="M204.6,104.5c-0.6,0-1,0.4-1,1s0.4,1,1,1s1-0.4,1-1S205.1,104.5,204.6,104.5
						 M203.5,101.7c3-0.8,5.8,1.9,4.9,4.9c-0.4,1.3-1.4,2.4-2.8,2.8c-3,0.8-5.8-1.9-4.9-4.9C201.1,103.1,202.2,102,203.5,101.7z"/>
					<circle id="Ellipse_9" class="st3" cx="222.6" cy="101.5" r="4"/>
					<path id="Ellipse_9_-_Outline" class="st2" d="M222.6,100.5c-0.6,0-1,0.4-1,1s0.4,1,1,1s1-0.4,1-1S223.1,100.5,222.6,100.5
						 M221.5,97.7c3-0.8,5.8,1.9,4.9,4.9c-0.4,1.3-1.4,2.4-2.8,2.8c-3,0.8-5.8-1.9-4.9-4.9C219.1,99.1,220.2,98,221.5,97.7z"/>
				</g>
			</g>
		</g>
	</g>
</g>
</svg>
